<?xml version="1.0" encoding="UTF-8"?>
<!DOCTYPE svg PUBLIC "-//W3C//DTD SVG 1.1//EN" "http://www.w3.org/Graphics/SVG/1.1/DTD/svg11.dtd">
<!-- Creator: CorelDRAW X7 -->
<svg xmlns="http://www.w3.org/2000/svg" xml:space="preserve" width="2550px" height="3300px" version="1.1" style="shape-rendering:geometricPrecision; text-rendering:geometricPrecision; image-rendering:optimizeQuality; fill-rule:evenodd; clip-rule:evenodd"
viewBox="0 0 2550 3300"
 xmlns:xlink="http://www.w3.org/1999/xlink">
 <defs>
  <style type="text/css">
   <![CDATA[
    .fil0 {fill:#373435}
   ]]>
  </style>
 </defs>
 <g id="Layer_x0020_1">
  <metadata id="CorelCorpID_0Corel-Layer"/>
  <path class="fil0" d="M1221 57c18,-10 36,-21 55,-26 21,2 38,15 56,24 55,35 111,67 168,98 257,148 513,296 770,444 42,28 92,45 128,81 3,18 2,36 2,54 -1,195 2,390 -1,584 -32,-14 -63,-29 -92,-47 -497,-285 -992,-574 -1489,-859 -32,-18 -63,-38 -91,-61 64,-50 138,-84 208,-125 95,-57 193,-108 286,-167z"/>
  <path class="fil0" d="M161 681c58,27 112,63 169,94 347,201 695,400 1042,601 333,192 668,381 999,574 15,9 31,22 29,41 0,205 0,411 0,616 -39,-5 -72,-31 -106,-50 -272,-156 -543,-313 -815,-468 -403,-237 -811,-466 -1214,-702 -32,-19 -67,-33 -96,-57 -14,-9 -9,-28 -10,-42 2,-202 -2,-405 2,-607z"/>
  <path class="fil0" d="M154 1970c24,6 46,17 67,29 80,52 166,95 247,145 272,153 540,312 812,465 130,78 263,151 395,229 57,34 116,65 171,102 -161,105 -334,188 -496,290 -23,13 -46,31 -73,34 -43,-12 -77,-42 -115,-63 -337,-193 -673,-386 -1009,-580 0,-217 -1,-434 1,-651z"/>
 </g>
</svg>
